<svg width="16" height="20" viewBox="0 0 16 20" fill="none" xmlns="http://www.w3.org/2000/svg">
<path d="M1.39449 19.5H1.39466C1.51549 19.5 1.69176 19.4443 1.89209 19.2732L1.89323 19.2722L7.08384 14.8652C7.08405 14.865 7.08427 14.8648 7.08449 14.8646C7.34799 14.6398 7.69831 14.5299 8.03872 14.5299C8.37967 14.5299 8.72952 14.6402 8.99321 14.8653C8.99329 14.8653 8.99338 14.8654 8.99347 14.8655L14.1673 19.2721L14.1678 19.2724C14.3776 19.4515 14.534 19.5001 14.646 19.5001C14.7426 19.5001 14.8289 19.4648 14.8953 19.3913C14.9623 19.3171 15.0452 19.1622 15.0452 18.864V1.69775C15.0452 1.05432 14.5029 0.5 13.8332 0.5H2.22901C1.53573 0.5 0.954102 1.07734 0.954102 1.69775V18.8639C0.954102 19.0764 1.01221 19.232 1.08823 19.3412L1.39449 19.5ZM1.39449 19.5C1.27043 19.5 1.15866 19.4422 1.08828 19.3413L1.39449 19.5Z" fill="#FF4B55" stroke="#FF4B55"/>
</svg>
