<svg width="506" height="685" viewBox="0 0 506 685" fill="none" xmlns="http://www.w3.org/2000/svg">
<path fill-rule="evenodd" clip-rule="evenodd" d="M500.814 2.70153C583.039 9.56954 656.215 42.206 729.645 79.8544C817.681 124.991 924.931 154.163 969.021 242.756C1014.97 335.089 1007.76 452.636 960.892 544.508C916.727 631.087 813.471 660.724 730.233 710.862C655.663 755.779 587.642 827.763 500.814 821.633C415.333 815.597 356.481 738.476 293.774 680.045C238.967 628.975 202.279 568.05 161.337 505.305C102.386 414.96 -16.5602 339.078 1.9308 232.785C20.0169 128.819 146.635 83.3384 242.429 39.1589C323.402 1.81446 411.96 -4.7201 500.814 2.70153Z" fill="url(#paint0_linear_24_744)"/>
<defs>
<linearGradient id="paint0_linear_24_744" x1="-5.58794e-06" y1="411" x2="1000" y2="411" gradientUnits="userSpaceOnUse">
<stop stop-color="#EE0979"/>
<stop offset="1" stop-color="#FF6A00"/>
</linearGradient>
</defs>
</svg>
