<svg width="371" height="849" viewBox="0 0 371 849" fill="none" xmlns="http://www.w3.org/2000/svg">
<path fill-rule="evenodd" clip-rule="evenodd" d="M285.745 937.27C223.037 1034.9 101.637 1065.74 -2.80428 1116.27C-107.271 1166.82 -207.755 1250.02 -322.302 1231.47C-437.378 1212.84 -499.919 1094 -590.842 1021.05C-700.566 933.006 -896.584 900.43 -909.477 760.323C-922.529 618.491 -709.868 565.089 -644.444 438.562C-577.242 308.596 -652.35 105.899 -529.783 26.0084C-410.192 -51.9422 -259.126 74.9372 -117.857 95.3271C30.9232 116.801 217.242 37.7138 318.849 148.495C420.786 259.635 341.808 438.898 335.483 589.597C330.451 709.497 350.602 836.294 285.745 937.27Z" fill="url(#paint0_linear_24_865)"/>
<defs>
<linearGradient id="paint0_linear_24_865" x1="112.214" y1="26.8926" x2="-491.406" y2="1152.76" gradientUnits="userSpaceOnUse">
<stop stop-color="#EE0979"/>
<stop offset="1" stop-color="#FF6A00"/>
</linearGradient>
</defs>
</svg>
