<svg width="433" height="972" viewBox="0 0 433 972" fill="none" xmlns="http://www.w3.org/2000/svg">
<path fill-rule="evenodd" clip-rule="evenodd" d="M297.997 204.986C365.869 276.189 366.971 382.371 387.692 478.525C408.417 574.703 456.843 674.137 418.63 764.787C380.241 855.855 269.826 883.586 191.524 943.881C97.0292 1016.64 30.9522 1171.6 -87.0482 1154.17C-206.501 1136.53 -207.919 950.652 -299.053 871.427C-392.665 790.048 -574.681 811.342 -615.956 694.379C-656.23 580.256 -521.465 481.209 -476.386 368.915C-428.911 250.651 -456.762 81.3307 -345.161 19.8053C-233.197 -41.9197 -101.333 59.0293 21.5448 94.4089C119.31 122.558 227.798 131.342 297.997 204.986Z" fill="url(#paint0_linear_24_745)"/>
<defs>
<linearGradient id="paint0_linear_24_745" x1="-486.703" y1="165.685" x2="319.936" y2="888.335" gradientUnits="userSpaceOnUse">
<stop stop-color="#EE0979"/>
<stop offset="1" stop-color="#FF6A00"/>
</linearGradient>
</defs>
</svg>
