<svg width="411" height="1066" viewBox="0 0 411 1066" fill="none" xmlns="http://www.w3.org/2000/svg">
<path fill-rule="evenodd" clip-rule="evenodd" d="M313.803 1173.44C222.304 1075.68 169.741 956.763 122.327 831.533C65.4811 681.395 -31.8662 529.563 11.4773 374.941C56.6503 213.793 193.26 80.156 349.654 20.5739C497.039 -35.5759 653.58 41.1224 808.336 71.3589C946.978 98.4471 1107.19 85.8272 1205.03 187.7C1301.36 287.992 1288.27 444.87 1300.16 583.445C1310.55 704.564 1288.41 817.825 1269.4 937.907C1242.04 1110.81 1302.63 1331.59 1164.7 1439.42C1029.78 1544.87 827.879 1461.82 664.494 1410.75C526.386 1367.58 412.678 1279.07 313.803 1173.44Z" fill="url(#paint0_linear_24_864)"/>
<defs>
<linearGradient id="paint0_linear_24_864" x1="1360.97" y1="1227" x2="157.286" y2="138.715" gradientUnits="userSpaceOnUse">
<stop stop-color="#EE0979"/>
<stop offset="1" stop-color="#FF6A00"/>
</linearGradient>
</defs>
</svg>
