<svg width="20" height="20" viewBox="0 0 20 20" fill="none" xmlns="http://www.w3.org/2000/svg">
<g clip-path="url(#clip0_5_21)">
<path d="M19.8507 9.60918C19.6722 9.41004 15.3782 4.72656 10 4.72656C4.62181 4.72656 0.32791 9.41004 0.149355 9.60918C-0.0497851 9.83176 -0.0497851 10.1682 0.149355 10.3908C0.32791 10.59 4.62189 15.2734 10 15.2734C15.3781 15.2734 19.6721 10.59 19.8507 10.3908C20.0498 10.1682 20.0498 9.83176 19.8507 9.60918ZM10 14.1016C7.73865 14.1016 5.89845 12.2614 5.89845 10C5.89845 7.73863 7.73865 5.89844 10 5.89844C12.2614 5.89844 14.1016 7.73863 14.1016 10C14.1016 12.2614 12.2614 14.1016 10 14.1016Z" fill="#8B5D9A"/>
<path d="M10.5156 9.3C10.5156 9.1994 10.8082 9.1109 11.2534 9.05647C10.8539 9.02157 10.4084 9 9.92969 9C8.31434 9 7 9.22431 7 9.5C7 9.77569 8.31434 10 9.92969 10C11.3759 10 12.573 9.81977 12.8095 9.58428C11.6295 9.64911 10.5156 9.49681 10.5156 9.3Z" fill="#8B5D9A"/>
</g>
<defs>
<clipPath id="clip0_5_21">
<rect width="20" height="20" fill="white"/>
</clipPath>
</defs>
</svg>
